<svg width="142" height="30" viewBox="0 0 142 30" fill="none" xmlns="http://www.w3.org/2000/svg">
<path d="M13.0919 4.47852H1.39209V27.8333H13.0919V4.47852Z" fill="#ffffff"/>
<path d="M21.8374 13.8598L16.1106 18.5179C14.8368 19.5542 14.8368 21.4987 16.1106 22.535L21.8374 27.1931C23.5394 28.582 26.451 27.5991 26.451 25.644V15.4303C26.451 13.4751 23.5394 12.4922 21.8374 13.8811V13.8598Z" fill="#ffffff"/>
<path d="M26.3008 6.00692C26.0867 3.57102 24.1599 1.63725 21.73 1.41289C18.8291 1.14579 16.1959 3.54965 16.2066 6.45564C16.2173 9.36164 18.4759 11.4877 21.259 11.4877C22.6506 11.4877 23.9137 10.9215 24.8236 10.024L26.29 11.4877V6.87231C26.3008 6.73342 26.3115 6.58385 26.3115 6.44496C26.3115 6.30607 26.3115 6.1565 26.29 6.01761L26.3008 6.00692Z" fill="#ffffff"/>
<path d="M31.0669 15.3145H34.239V20.5815L40.3126 15.3145H44.589L37.8225 21.1462L45.0112 27.8142H40.4208L35.4299 23.0793L34.239 24.1436V27.8142H31.0669V15.3145Z" fill="#ffffff"/>
<path d="M46.0723 15.3145H58.2519V17.8448H49.2552V20.2666H57.9379V22.6883H49.2552V25.2947H58.2519V27.8251H46.0723V15.3253V15.3145Z" fill="#ffffff"/>
<path d="M65.2454 22.9272L59.1177 15.3145H63.1126L66.8477 20.1471L70.507 15.3145H74.556L68.4283 22.9272V27.8142H65.2345V22.9272H65.2454Z" fill="#ffffff"/>
<path d="M75.8447 15.3145H79.1359L86.6819 23.6114V15.3145H89.8757V27.8142H86.7901L79.0168 19.2675V27.8142H75.8447V15.3145Z" fill="#ffffff"/>
<path d="M92.6255 15.3145H104.805V17.8448H95.8084V20.2666H104.491V22.6883H95.8084V25.2947H104.805V27.8251H92.6255V15.3253V15.3145Z" fill="#ffffff"/>
<path d="M107.122 15.3145H111.495L115.328 23.3508L119.171 15.3145H123.545V27.8142H120.405V18.9091L116.162 27.8142H114.483L110.24 18.9091V27.8142H107.122V15.3145Z" fill="#ffffff"/>
<path d="M134.588 15.3145H130.831L124.823 27.8142H128.374L129.326 25.6965L130.409 23.2639L132.726 18.0946L135.021 23.2639L136.104 25.6965L137.056 27.8142H140.608L134.588 15.3145Z" fill="#ffffff"/>
</svg>
