<svg width="48" height="51" viewBox="0 0 48 51" fill="none" xmlns="http://www.w3.org/2000/svg">
<path d="M22.1332 5.83008H0V50.0966H22.1332V5.83008Z" fill="#FF1A66"/>
<path d="M38.6774 23.6088L27.8437 32.4378C25.4339 34.402 25.4339 38.0875 27.8437 40.0518L38.6774 48.8808C41.8972 51.5133 47.4052 49.6503 47.4052 45.9445V26.5855C47.4052 22.8798 41.8972 21.0168 38.6774 23.6493V23.6088Z" fill="#FF1A66"/>
<path d="M47.1217 8.72575C46.7167 4.129 43.0717 0.443499 38.4749 0.0384989C32.9872 -0.467751 28.0057 4.0885 28.0259 9.5965C28.0462 15.1045 32.3189 19.1343 37.5839 19.1343C40.2164 19.1343 42.6059 18.061 44.3272 16.36L47.1014 19.1343V10.3862C47.1217 10.123 47.1419 9.8395 47.1419 9.57625C47.1419 9.313 47.1419 9.0295 47.1014 8.76625L47.1217 8.72575Z" fill="#FF1A66"/>
</svg>
