<svg width="80" height="15" viewBox="0 0 80 15" fill="none" xmlns="http://www.w3.org/2000/svg">
<path d="M8.33988 14.0996L3.91988 7.91961V14.0996H-0.000117153V-0.000391483H3.91988V6.07961L8.29988 -0.000391483H12.8199L7.63988 6.83961L13.0799 14.0996H8.33988ZM18.4316 -0.000391483V14.0996H14.5116V-0.000391483H18.4316ZM33.7239 14.0996H29.8039L24.5839 6.21961V14.0996H20.6639V-0.000391483H24.5839L29.8039 7.97961V-0.000391483H33.7239V14.0996ZM39.8769 3.13961V5.43961H44.3769V8.41961H39.8769V10.9596H44.9769V14.0996H35.9569V-0.000391483H44.9769V3.13961H39.8769ZM63.3739 -0.000391483V14.0996H59.4539V6.31961L56.7939 14.0996H53.5139L50.8339 6.25961V14.0996H46.9139V-0.000391483H51.6539L55.1939 9.15961L58.6539 -0.000391483H63.3739ZM74.5254 11.7996H69.5254L68.7654 14.0996H64.6454L69.7854 -0.000391483H74.3054L79.4254 14.0996H75.2854L74.5254 11.7996ZM73.5454 8.79961L72.0254 4.23961L70.5254 8.79961H73.5454Z" fill="#FE1851"/>
</svg>
